<svg width="50" height="50" viewBox="0 0 50 50" fill="none" xmlns="http://www.w3.org/2000/svg">
<path fill-rule="evenodd" clip-rule="evenodd" d="M43.7891 8.53516C44.652 8.53516 45.3516 9.23471 45.3516 10.0977V19.4727C45.3516 20.3356 44.652 21.0352 43.7891 21.0352H34.4141C33.5511 21.0352 32.8516 20.3356 32.8516 19.4727C32.8516 18.6097 33.5511 17.9102 34.4141 17.9102H42.2266V10.0977C42.2266 9.23471 42.9261 8.53516 43.7891 8.53516Z" fill="#302B63"/>
<path fill-rule="evenodd" clip-rule="evenodd" d="M25 9.37683C22.9487 9.37683 20.9176 9.78123 19.0228 10.5669C17.128 11.3526 15.4066 12.5041 13.9572 13.9556C13.3475 14.5663 12.3582 14.567 11.7475 13.9572C11.1369 13.3475 11.1362 12.3582 11.7459 11.7475C13.4855 10.0053 15.5516 8.62322 17.8258 7.68022C20.1001 6.73722 22.538 6.25183 25 6.25183C27.462 6.25183 29.8999 6.73722 32.1741 7.68022C34.448 8.62303 36.5136 10.0048 38.253 11.7465C38.2534 11.7468 38.2527 11.7461 38.253 11.7465L44.8923 18.3662C45.5034 18.9755 45.5048 19.9648 44.8955 20.5759C44.2862 21.187 43.2969 21.1884 42.6858 20.5791L36.0428 13.9556C34.5934 12.5041 32.872 11.3526 30.9772 10.5669C29.0824 9.78123 27.0513 9.37683 25 9.37683Z" fill="#302B63"/>
<path fill-rule="evenodd" clip-rule="evenodd" d="M4.64844 30.5273C4.64844 29.6644 5.34799 28.9648 6.21094 28.9648H15.5859C16.4489 28.9648 17.1484 29.6644 17.1484 30.5273C17.1484 31.3903 16.4489 32.0898 15.5859 32.0898H7.77344V39.9023C7.77344 40.7653 7.07388 41.4648 6.21094 41.4648C5.34799 41.4648 4.64844 40.7653 4.64844 39.9023V30.5273Z" fill="#302B63"/>
<path fill-rule="evenodd" clip-rule="evenodd" d="M5.10446 29.4241C5.71375 28.813 6.70307 28.8116 7.31416 29.4209L13.9572 36.0444C15.4066 37.4959 17.128 38.6474 19.0228 39.4331C20.9176 40.2188 22.9487 40.6232 25 40.6232C27.0513 40.6232 29.0824 40.2188 30.9772 39.4331C32.872 38.6474 34.5934 37.4959 36.0428 36.0444C36.6525 35.4337 37.6418 35.433 38.2525 36.0428C38.8631 36.6525 38.8638 37.6418 38.2541 38.2525C36.5145 39.9947 34.4484 41.3768 32.1741 42.3198C29.8999 43.2628 27.462 43.7482 25 43.7482C22.538 43.7482 20.1001 43.2628 17.8258 42.3198C15.5522 41.377 13.4866 39.9954 11.7472 38.2538C11.7468 38.2534 11.7463 38.2529 11.7459 38.2525L5.10771 31.6338C4.49662 31.0245 4.49516 30.0352 5.10446 29.4241Z" fill="#302B63"/>
</svg>
