<svg width="108" height="108" viewBox="0 0 108 108" fill="none" xmlns="http://www.w3.org/2000/svg">
<g filter="url(#filter0_d_26_2)">
<rect x="2" y="2" width="100" height="100" rx="1.39564" fill="white" fill-opacity="0.3"/>
<rect x="2.13956" y="2.13956" width="99.7209" height="99.7209" rx="1.25607" stroke="#6F78A8" stroke-opacity="0.5" stroke-width="0.279128"/>
</g>
<path fill-rule="evenodd" clip-rule="evenodd" d="M70.7891 35.5352C71.652 35.5352 72.3516 36.2347 72.3516 37.0977V46.4727C72.3516 47.3356 71.652 48.0352 70.7891 48.0352H61.4141C60.5511 48.0352 59.8516 47.3356 59.8516 46.4727C59.8516 45.6097 60.5511 44.9102 61.4141 44.9102H69.2266V37.0977C69.2266 36.2347 69.9261 35.5352 70.7891 35.5352Z" fill="#302B63"/>
<path fill-rule="evenodd" clip-rule="evenodd" d="M52 36.3768C49.9487 36.3768 47.9176 36.7812 46.0228 37.5669C44.128 38.3526 42.4066 39.5041 40.9572 40.9556C40.3475 41.5663 39.3582 41.567 38.7475 40.9572C38.1369 40.3475 38.1362 39.3582 38.7459 38.7475C40.4855 37.0053 42.5516 35.6232 44.8258 34.6802C47.1001 33.7372 49.538 33.2518 52 33.2518C54.462 33.2518 56.8999 33.7372 59.1741 34.6802C61.448 35.623 63.5136 37.0048 65.253 38.7465C65.2534 38.7468 65.2527 38.7461 65.253 38.7465L71.8923 45.3662C72.5034 45.9755 72.5048 46.9648 71.8955 47.5759C71.2862 48.187 70.2969 48.1884 69.6858 47.5791L63.0428 40.9556C61.5934 39.5041 59.872 38.3526 57.9772 37.5669C56.0824 36.7812 54.0513 36.3768 52 36.3768Z" fill="#302B63"/>
<path fill-rule="evenodd" clip-rule="evenodd" d="M31.6484 57.5273C31.6484 56.6644 32.348 55.9648 33.2109 55.9648H42.5859C43.4489 55.9648 44.1484 56.6644 44.1484 57.5273C44.1484 58.3903 43.4489 59.0898 42.5859 59.0898H34.7734V66.9023C34.7734 67.7653 34.0739 68.4648 33.2109 68.4648C32.348 68.4648 31.6484 67.7653 31.6484 66.9023V57.5273Z" fill="#302B63"/>
<path fill-rule="evenodd" clip-rule="evenodd" d="M32.1045 56.4241C32.7138 55.813 33.7031 55.8116 34.3142 56.4209L40.9572 63.0444C42.4066 64.4959 44.128 65.6474 46.0228 66.4331C47.9176 67.2188 49.9487 67.6232 52 67.6232C54.0513 67.6232 56.0824 67.2188 57.9772 66.4331C59.872 65.6474 61.5934 64.4959 63.0428 63.0444C63.6525 62.4337 64.6418 62.433 65.2525 63.0428C65.8631 63.6525 65.8638 64.6418 65.2541 65.2525C63.5145 66.9947 61.4484 68.3768 59.1741 69.3198C56.8999 70.2628 54.462 70.7482 52 70.7482C49.538 70.7482 47.1001 70.2628 44.8258 69.3198C42.5522 68.377 40.4866 66.9954 38.7472 65.2538C38.7468 65.2534 38.7463 65.2529 38.7459 65.2525L32.1077 58.6338C31.4966 58.0245 31.4952 57.0352 32.1045 56.4241Z" fill="#302B63"/>
<defs>
<filter id="filter0_d_26_2" x="0" y="0" width="108" height="108" filterUnits="userSpaceOnUse" color-interpolation-filters="sRGB">
<feFlood flood-opacity="0" result="BackgroundImageFix"/>
<feColorMatrix in="SourceAlpha" type="matrix" values="0 0 0 0 0 0 0 0 0 0 0 0 0 0 0 0 0 0 127 0" result="hardAlpha"/>
<feOffset dx="2" dy="2"/>
<feGaussianBlur stdDeviation="2"/>
<feComposite in2="hardAlpha" operator="out"/>
<feColorMatrix type="matrix" values="0 0 0 0 0 0 0 0 0 0 0 0 0 0 0 0 0 0 0.25 0"/>
<feBlend mode="normal" in2="BackgroundImageFix" result="effect1_dropShadow_26_2"/>
<feBlend mode="normal" in="SourceGraphic" in2="effect1_dropShadow_26_2" result="shape"/>
</filter>
</defs>
</svg>
