<svg width="50" height="58" viewBox="0 0 50 58" fill="none" xmlns="http://www.w3.org/2000/svg">
<g filter="url(#filter0_d_2_16)">
<path d="M24.9609 18.6875C26.8918 18.6875 28.457 17.1222 28.457 15.1914C28.457 13.2606 26.8918 11.6953 24.9609 11.6953C23.0301 11.6953 21.4648 13.2606 21.4648 15.1914C21.4648 17.1222 23.0301 18.6875 24.9609 18.6875Z" fill="#E0E0E0"/>
<path d="M35.293 7.08594C34.5898 7.08594 33.9844 7.57422 33.8086 8.21875H16.1133C15.9375 7.57422 15.332 7.08594 14.6289 7.08594C13.9258 7.08594 13.3203 7.57422 13.1445 8.21875H9.53125V9.19531H13.1055V15.6211C13.1055 16.0508 13.2812 16.4414 13.5742 16.7148L20.1367 23.2773V23.5117V35.3281V51.0898C20.1367 52.3008 21.1133 53.2773 22.3242 53.2773C23.5352 53.2773 24.5117 52.3008 24.5117 51.0898V35.7578C24.5117 35.5234 24.707 35.3281 24.9414 35.3281C25.1758 35.3281 25.3711 35.5234 25.3711 35.7578V51.0898C25.3711 52.3008 26.3477 53.2773 27.5586 53.2773C28.7695 53.2773 29.7461 52.3008 29.7461 51.0898V35.3281V23.3164L36.3086 16.7539C36.6016 16.4805 36.7773 16.0703 36.7773 15.6602V9.21484H40.3516V8.23828H36.7187C36.6016 7.57422 35.9961 7.08594 35.293 7.08594ZM33.7695 14.9961L30.3516 18.4141C29.8437 18.9219 29.1406 19.1758 28.4766 19.1758H24.9805H21.4844C20.8008 19.1758 20.1172 18.9219 19.6094 18.4141L16.1719 14.9961V9.21484H33.7695V14.9961Z" fill="#E0E0E0"/>
<path d="M9.21875 4.35156H7.05078V13.0234H9.21875V4.35156Z" fill="#E0E0E0"/>
<path d="M6.5625 6.59766H4.39453V10.7773H6.5625V6.59766Z" fill="#E0E0E0"/>
<path d="M42.8906 4.35156H40.7227V13.0234H42.8906V4.35156Z" fill="#E0E0E0"/>
<path d="M45.5469 6.59766H43.3789V10.7773H45.5469V6.59766Z" fill="#E0E0E0"/>
</g>
<defs>
<filter id="filter0_d_2_16" x="-4" y="0" width="58" height="58" filterUnits="userSpaceOnUse" color-interpolation-filters="sRGB">
<feFlood flood-opacity="0" result="BackgroundImageFix"/>
<feColorMatrix in="SourceAlpha" type="matrix" values="0 0 0 0 0 0 0 0 0 0 0 0 0 0 0 0 0 0 127 0" result="hardAlpha"/>
<feOffset/>
<feGaussianBlur stdDeviation="2"/>
<feComposite in2="hardAlpha" operator="out"/>
<feColorMatrix type="matrix" values="0 0 0 0 0 0 0 0 0 0 0 0 0 0 0 0 0 0 0.5 0"/>
<feBlend mode="normal" in2="BackgroundImageFix" result="effect1_dropShadow_2_16"/>
<feBlend mode="normal" in="SourceGraphic" in2="effect1_dropShadow_2_16" result="shape"/>
</filter>
</defs>
</svg>
