<svg width="50" height="50" viewBox="0 0 50 50" fill="none" xmlns="http://www.w3.org/2000/svg">
<g filter="url(#filter0_d_2_14)">
<path d="M25 45.8333C13.4938 45.8333 4.16667 36.5063 4.16667 25C4.16667 13.4938 13.4938 4.16667 25 4.16667C36.5063 4.16667 45.8333 13.4938 45.8333 25C45.8333 36.5063 36.5063 45.8333 25 45.8333ZM25 41.6667C29.4203 41.6667 33.6595 39.9107 36.7851 36.7851C39.9107 33.6595 41.6667 29.4203 41.6667 25C41.6667 20.5797 39.9107 16.3405 36.7851 13.2149C33.6595 10.0893 29.4203 8.33333 25 8.33333C20.5797 8.33333 16.3405 10.0893 13.2149 13.2149C10.0893 16.3405 8.33333 20.5797 8.33333 25C8.33333 29.4203 10.0893 33.6595 13.2149 36.7851C16.3405 39.9107 20.5797 41.6667 25 41.6667ZM16.6667 29.1667H33.3333V33.3333H16.6667V29.1667ZM16.6667 22.9167C15.8379 22.9167 15.043 22.5874 14.457 22.0014C13.8709 21.4153 13.5417 20.6205 13.5417 19.7917C13.5417 18.9629 13.8709 18.168 14.457 17.582C15.043 16.9959 15.8379 16.6667 16.6667 16.6667C17.4955 16.6667 18.2903 16.9959 18.8764 17.582C19.4624 18.168 19.7917 18.9629 19.7917 19.7917C19.7917 20.6205 19.4624 21.4153 18.8764 22.0014C18.2903 22.5874 17.4955 22.9167 16.6667 22.9167ZM33.3333 22.9167C32.5045 22.9167 31.7097 22.5874 31.1236 22.0014C30.5376 21.4153 30.2083 20.6205 30.2083 19.7917C30.2083 18.9629 30.5376 18.168 31.1236 17.582C31.7097 16.9959 32.5045 16.6667 33.3333 16.6667C34.1621 16.6667 34.957 16.9959 35.543 17.582C36.1291 18.168 36.4583 18.9629 36.4583 19.7917C36.4583 20.6205 36.1291 21.4153 35.543 22.0014C34.957 22.5874 34.1621 22.9167 33.3333 22.9167Z" fill="#E9E9E9"/>
</g>
<defs>
<filter id="filter0_d_2_14" x="-4" y="-4" width="58" height="58" filterUnits="userSpaceOnUse" color-interpolation-filters="sRGB">
<feFlood flood-opacity="0" result="BackgroundImageFix"/>
<feColorMatrix in="SourceAlpha" type="matrix" values="0 0 0 0 0 0 0 0 0 0 0 0 0 0 0 0 0 0 127 0" result="hardAlpha"/>
<feOffset/>
<feGaussianBlur stdDeviation="2"/>
<feComposite in2="hardAlpha" operator="out"/>
<feColorMatrix type="matrix" values="0 0 0 0 0 0 0 0 0 0 0 0 0 0 0 0 0 0 0.5 0"/>
<feBlend mode="normal" in2="BackgroundImageFix" result="effect1_dropShadow_2_14"/>
<feBlend mode="normal" in="SourceGraphic" in2="effect1_dropShadow_2_14" result="shape"/>
</filter>
</defs>
</svg>
